<svg width="24" height="25" viewBox="0 0 24 25" fill="none" xmlns="http://www.w3.org/2000/svg">
<path d="M10.2076 0.52516C10.5643 0.18791 11.0366 0 11.5275 0C12.0184 0 12.4907 0.18791 12.8474 0.52516L22.154 9.32258C22.7303 9.86629 23.055 10.6252 23.055 11.4167V22.1181C23.055 22.8824 22.7514 23.6155 22.211 24.1559C21.6705 24.6964 20.9375 25 20.1732 25H16.3306C15.952 25 15.5771 24.9254 15.2274 24.7804C14.8776 24.6355 14.5598 24.423 14.2922 24.1552C14.0245 23.8874 13.8123 23.5695 13.6676 23.2196C13.5229 22.8698 13.4485 22.4948 13.4488 22.1162V17.3131C13.4488 17.0583 13.3476 16.814 13.1674 16.6338C12.9873 16.4536 12.7429 16.3524 12.4881 16.3524H10.5669C10.3121 16.3524 10.0678 16.4536 9.88762 16.6338C9.70747 16.814 9.60626 17.0583 9.60626 17.3131V22.1162C9.60626 22.8805 9.30264 23.6135 8.76218 24.154C8.22172 24.6945 7.48871 24.9981 6.72438 24.9981H2.88188C2.11756 24.9981 1.38454 24.6945 0.844083 24.154C0.303626 23.6135 0 22.8805 0 22.1162V11.4148C0 10.6233 0.326613 9.86437 0.902989 9.32066L10.2076 0.521318V0.52516ZM11.5275 1.91999L2.22097 10.7193C2.12649 10.8089 2.0512 10.9167 1.99968 11.0363C1.94816 11.1559 1.92148 11.2846 1.92125 11.4148V22.1162C1.92125 22.371 2.02246 22.6153 2.20261 22.7955C2.38277 22.9756 2.62711 23.0768 2.88188 23.0768H6.72438C6.97916 23.0768 7.2235 22.9756 7.40365 22.7955C7.5838 22.6153 7.68501 22.371 7.68501 22.1162V17.3131C7.68501 16.5487 7.98864 15.8157 8.52909 15.2753C9.06955 14.7348 9.80257 14.4312 10.5669 14.4312H12.4881C13.2525 14.4312 13.9855 14.7348 14.5259 15.2753C15.0664 15.8157 15.37 16.5487 15.37 17.3131V22.1162C15.37 22.371 15.4712 22.6153 15.6514 22.7955C15.8315 22.9756 16.0759 23.0768 16.3306 23.0768H20.1732C20.4279 23.0768 20.6723 22.9756 20.8524 22.7955C21.0326 22.6153 21.1338 22.371 21.1338 22.1162V11.4148C21.1338 11.2843 21.1073 11.1552 21.0557 11.0353C21.0042 10.9153 20.9288 10.8072 20.8341 10.7174L11.5275 1.91999Z" fill="#8C8C8C"/>
</svg>
