<svg width="20" height="20" viewBox="0 0 20 20" fill="none" xmlns="http://www.w3.org/2000/svg">
<path fill-rule="evenodd" clip-rule="evenodd" d="M0.25 4C0.25 1.92893 1.92893 0.25 4 0.25H16C18.0711 0.25 19.75 1.92893 19.75 4V13C19.75 13.1989 19.671 13.3897 19.5303 13.5303L13.5303 19.5303C13.3897 19.671 13.1989 19.75 13 19.75H4C1.92893 19.75 0.25 18.0711 0.25 16V4ZM4 1.75C2.75736 1.75 1.75 2.75736 1.75 4V16C1.75 17.2426 2.75736 18.25 4 18.25H12.25V14C12.25 13.0335 13.0335 12.25 14 12.25H18.25V4C18.25 2.75736 17.2426 1.75 16 1.75H4ZM17.1893 13.75H14C13.8619 13.75 13.75 13.8619 13.75 14V17.1893L17.1893 13.75ZM3.25 6C3.25 5.58579 3.58579 5.25 4 5.25H12C12.4142 5.25 12.75 5.58579 12.75 6C12.75 6.41421 12.4142 6.75 12 6.75H4C3.58579 6.75 3.25 6.41421 3.25 6ZM3.25 9C3.25 8.58579 3.58579 8.25 4 8.25H10C10.4142 8.25 10.75 8.58579 10.75 9C10.75 9.41421 10.4142 9.75 10 9.75H4C3.58579 9.75 3.25 9.41421 3.25 9Z" fill="#8C8C8C"/>
</svg>
