<svg width="22" height="22" viewBox="0 0 22 22" fill="none" xmlns="http://www.w3.org/2000/svg">
<path d="M7.625 11C8.24632 11 8.75 10.4963 8.75 9.875C8.75 9.25368 8.24632 8.75 7.625 8.75C7.00368 8.75 6.5 9.25368 6.5 9.875C6.5 10.4963 7.00368 11 7.625 11Z" fill="#8C8C8C"/>
<path d="M11.0024 17C8.87331 17 7.08268 15.6158 6.51596 13.7268C6.50011 13.6705 6.49761 13.6114 6.50867 13.554C6.51972 13.4967 6.54401 13.4427 6.57961 13.3964C6.61522 13.3501 6.66115 13.3128 6.71374 13.2874C6.76633 13.2619 6.82412 13.2492 6.88253 13.25H15.118C15.1764 13.2492 15.2342 13.2619 15.2868 13.2874C15.3394 13.3128 15.3853 13.3501 15.4209 13.3964C15.4565 13.4427 15.4808 13.4967 15.4919 13.554C15.5029 13.6114 15.5004 13.6705 15.4846 13.7268C14.9225 15.6158 13.1314 17 11.0024 17Z" fill="#8C8C8C"/>
<path d="M14.375 11C14.9963 11 15.5 10.4963 15.5 9.875C15.5 9.25368 14.9963 8.75 14.375 8.75C13.7537 8.75 13.25 9.25368 13.25 9.875C13.25 10.4963 13.7537 11 14.375 11Z" fill="#8C8C8C"/>
<path d="M11 20.75C16.3848 20.75 20.75 16.3848 20.75 11C20.75 5.61522 16.3848 1.25 11 1.25C5.61522 1.25 1.25 5.61522 1.25 11C1.25 16.3848 5.61522 20.75 11 20.75Z" stroke="#8C8C8C" stroke-width="1.5" stroke-miterlimit="10"/>
</svg>
