<svg width="25" height="27" viewBox="0 0 25 27" fill="none" xmlns="http://www.w3.org/2000/svg">
    <path d="M2.01176 10.8C2.06204 10.1735 2.34646 9.58894 2.80836 9.16271C3.27026 8.73648 3.87575 8.49987 4.50426 8.5H19.5768C20.2053 8.49987 20.8108 8.73648 21.2727 9.16271C21.7346 9.58894 22.019 10.1735 22.0693 10.8L23.073 23.3C23.1006 23.644 23.0567 23.99 22.9441 24.3162C22.8314 24.6424 22.6524 24.9417 22.4184 25.1953C22.1844 25.4489 21.9004 25.6514 21.5843 25.7899C21.2682 25.9283 20.9269 25.9999 20.5818 26H3.49926C3.15417 25.9999 2.81283 25.9283 2.49674 25.7899C2.18065 25.6514 1.89665 25.4489 1.66263 25.1953C1.42861 24.9417 1.24964 24.6424 1.13698 24.3162C1.02431 23.99 0.980405 23.644 1.00801 23.3L2.01176 10.8V10.8Z" stroke="#8C8C8C" stroke-width="2" stroke-linecap="round" stroke-linejoin="round"/>
    <path d="M17.04 12.25V6C17.04 4.67392 16.5133 3.40215 15.5756 2.46447C14.6379 1.52678 13.3661 1 12.04 1C10.714 1 9.44219 1.52678 8.5045 2.46447C7.56682 3.40215 7.04004 4.67392 7.04004 6V12.25" stroke="#8C8C8C" stroke-width="2" stroke-linecap="round" stroke-linejoin="round"/>
</svg>
