<svg width="180" height="40" viewBox="0 0 180 40" fill="none" xmlns="http://www.w3.org/2000/svg">
<g clip-path="url(#clip0_1281_2915)">
<path d="M179.992 4.90668C180.094 6.49545 179.488 7.94385 178.467 8.97113C177.771 9.66662 176.878 10.1707 175.883 10.3876C175.303 10.5152 174.696 10.2217 174.448 9.673C173.274 7.06971 171.589 4.75355 169.516 2.84575C168.419 1.83123 169.133 0 170.626 0H174.562C177.274 0 179.813 2.20131 179.985 4.90668H179.992Z" fill="#37521C"/>
<path d="M54.8467 5.64062C52.6776 5.64062 50.9168 7.40167 50.9168 9.57108V27.2198C50.9168 29.9316 48.384 32.1329 45.277 32.1329C43.714 32.1329 42.2594 31.5842 41.1748 30.5888C40.1796 29.67 39.6373 28.4768 39.6373 27.2198V9.57108C39.6373 7.40167 37.8764 5.64062 35.7073 5.64062C33.5382 5.64062 31.7773 7.40167 31.7773 9.57108V27.2198C31.7773 30.6909 33.2192 33.9386 35.8477 36.3696C38.3868 38.7113 41.7362 40.0002 45.277 40.0002C52.7223 40.0002 58.7831 34.2704 58.7831 27.2198V9.57108C58.7831 7.40167 57.0223 5.64062 54.8531 5.64062H54.8467Z" fill="#37521C"/>
<path d="M26.1062 5.64062H3.92996C1.76083 5.64062 0 7.40167 0 9.57108C0 11.7405 1.76083 13.5015 3.92996 13.5015H11.0817V36.0633C11.0817 38.2327 12.8426 39.9938 15.0117 39.9938C17.1808 39.9938 18.9417 38.2327 18.9417 36.0633V13.5015H26.0934C28.2626 13.5015 30.0234 11.7405 30.0234 9.57108C30.0234 7.40167 28.2626 5.64062 26.0934 5.64062H26.1062Z" fill="#37521C"/>
<path d="M113.994 5.64062H91.8245C89.6554 5.64062 87.8945 7.40167 87.8945 9.57108C87.8945 11.7405 89.6554 13.5015 91.8245 13.5015H98.9763V36.0633C98.9763 38.2327 100.737 39.9938 102.906 39.9938C105.075 39.9938 106.836 38.2327 106.836 36.0633V13.5015H113.988C116.157 13.5015 117.918 11.7405 117.918 9.57108C117.918 7.40167 116.157 5.64062 113.988 5.64062H113.994Z" fill="#37521C"/>
<path d="M81.7748 25.1653C82.4383 24.7888 83.0699 24.3486 83.6441 23.8445C85.9153 21.8729 87.2168 19.0846 87.2168 16.1941C87.2168 10.375 82.0491 5.64062 75.6948 5.64062H65.4807C63.9879 5.64062 62.6864 6.4701 62.0229 7.69518C61.723 8.25029 61.5508 8.88835 61.5508 9.57108V36.0633C61.5508 38.2327 63.3116 39.9938 65.4807 39.9938C67.6499 39.9938 69.4107 38.2327 69.4107 36.0633V26.7477H73.5002L80.5371 38.1307C81.2835 39.3366 82.5659 39.9938 83.8865 39.9938C84.5947 39.9938 85.3092 39.8024 85.9472 39.4068C87.7973 38.2646 88.3651 35.84 87.2231 33.996L81.762 25.1589L81.7748 25.1653ZM69.4235 13.5079H75.7012C77.6853 13.5079 79.3568 14.7394 79.3568 16.2005C79.3568 16.9917 78.8847 17.5724 78.4828 17.9233C77.7746 18.5422 76.7602 18.8931 75.7012 18.8931H69.4235V13.5143V13.5079Z" fill="#37521C"/>
<path d="M138.118 32.1329H127.508V9.57108C127.508 7.40167 125.748 5.64062 123.578 5.64062C121.409 5.64062 119.648 7.40167 119.648 9.57108V36.0633C119.648 38.2327 121.409 39.9938 123.578 39.9938H138.124C140.294 39.9938 142.054 38.2327 142.054 36.0633C142.054 33.8939 140.294 32.1329 138.124 32.1329H138.118Z" fill="#37521C"/>
<path d="M166.092 32.1329H156.044L169.384 11.7213C170.175 10.5154 170.239 8.9713 169.55 7.70156C168.861 6.43182 167.534 5.64062 166.092 5.64062H148.777C146.608 5.64062 144.847 7.40167 144.847 9.57108C144.847 11.7405 146.608 13.5015 148.777 13.5015H158.825L145.485 33.9131C144.694 35.119 144.63 36.6631 145.319 37.9329C146.008 39.2026 147.335 39.9938 148.777 39.9938H166.092C168.261 39.9938 170.022 38.2327 170.022 36.0633C170.022 33.8939 168.261 32.1329 166.092 32.1329Z" fill="#37521C"/>
</g>
<defs>
<clipPath id="clip0_1281_2915">
<rect width="180" height="40" fill="white"/>
</clipPath>
</defs>
</svg>
