<svg width="16" height="15" viewBox="0 0 16 15" fill="none" xmlns="http://www.w3.org/2000/svg">
<path d="M1.94434 6.17855C2.17239 3.0595 4.80105 0.595215 8.00585 0.595215C11.2107 0.595215 13.8393 3.0595 14.0674 6.17855" stroke="black" stroke-miterlimit="10" stroke-linejoin="round"/>
<path d="M12.9518 11.0476H12.0275V6.17856H12.9518C14.3081 6.17856 15.4004 7.2738 15.4004 8.60713C15.4004 9.95237 14.2961 11.0357 12.9518 11.0357V11.0476Z" stroke="black" stroke-miterlimit="10" stroke-linejoin="round"/>
<path d="M3.0492 6.17859H3.97343V11.0476H3.0492C1.69286 11.0476 0.600586 9.9524 0.600586 8.61906C0.600586 7.27383 1.70486 6.19049 3.0492 6.19049V6.17859Z" stroke="black" stroke-miterlimit="10" stroke-linejoin="round"/>
<path d="M13.5514 11.0476V12.3452C13.5514 13.4762 12.6272 14.4048 11.4749 14.4048H8.33008" stroke="black" stroke-miterlimit="10" stroke-linejoin="round"/>
</svg>
