<svg width="20" height="14" viewBox="0 0 20 14" fill="none" xmlns="http://www.w3.org/2000/svg">
<path d="M1 0.5H19C19.1326 0.5 19.2598 0.552679 19.3536 0.646447C19.4473 0.740214 19.5 0.867391 19.5 1V4.5H19.107C17.9039 4.5 16.7396 5.32272 16.5338 6.58206C16.4732 6.94026 16.4914 7.30736 16.5871 7.65783C16.683 8.00887 16.8543 8.33477 17.0891 8.61278C17.3239 8.89078 17.6165 9.1142 17.9466 9.26744C18.2766 9.42067 18.6361 9.50004 19 9.5C19 9.5 19 9.5 19.0001 9.5H19.5V13C19.5 13.1326 19.4473 13.2598 19.3536 13.3536C19.2598 13.4473 19.1326 13.5 19 13.5H1C0.867391 13.5 0.740214 13.4473 0.646446 13.3536C0.552679 13.2598 0.5 13.1326 0.5 13V9.5H0.999939C0.99996 9.5 0.99998 9.5 1 9.5C1.36388 9.50004 1.72338 9.42067 2.05342 9.26744C2.38348 9.1142 2.67612 8.89078 2.91093 8.61278C3.14573 8.33477 3.31704 8.00887 3.4129 7.65783C3.50861 7.30734 3.52681 6.94021 3.46623 6.58198C3.26034 5.32269 2.09603 4.5 0.893 4.5H0.5V1C0.5 0.867392 0.552678 0.740215 0.646447 0.646447C0.740215 0.552678 0.867392 0.5 1 0.5Z" stroke="black"/>
<path d="M7 8H8" stroke="black" stroke-miterlimit="10"/>
<path d="M7 6H8" stroke="black" stroke-miterlimit="10"/>
<path d="M7 4H8" stroke="black" stroke-miterlimit="10"/>
<path d="M7 2H8" stroke="black" stroke-miterlimit="10"/>
<path d="M7 10H8" stroke="black" stroke-miterlimit="10"/>
<path d="M7 12H8" stroke="black" stroke-miterlimit="10"/>
</svg>
