<svg width="22" height="22" viewBox="0 0 22 22" fill="none" xmlns="http://www.w3.org/2000/svg">
<path d="M15.3748 2.24984C16.5342 2.25331 17.6451 2.71539 18.4648 3.53517C19.2846 4.35495 19.7467 5.46582 19.7502 6.62516V15.3748C19.7467 16.5342 19.2846 17.6451 18.4648 18.4648C17.6451 19.2846 16.5342 19.7467 15.3748 19.7502H6.62516C5.46582 19.7467 4.35495 19.2846 3.53517 18.4648C2.71539 17.6451 2.25331 16.5342 2.24984 15.3748V6.62516C2.25331 5.46582 2.71539 4.35495 3.53517 3.53517C4.35495 2.71539 5.46582 2.25331 6.62516 2.24984H15.3748V2.24984ZM15.3748 0.5H6.62516C3.25625 0.5 0.5 3.25625 0.5 6.62516V15.3748C0.5 18.7437 3.25625 21.5 6.62516 21.5H15.3748C18.7437 21.5 21.5 18.7437 21.5 15.3748V6.62516C21.5 3.25625 18.7437 0.5 15.3748 0.5V0.5Z" fill="white"/>
<path d="M16.6874 6.62524C16.4278 6.62524 16.174 6.54826 15.9582 6.40405C15.7424 6.25983 15.5741 6.05484 15.4748 5.81501C15.3754 5.57519 15.3495 5.31129 15.4001 5.05669C15.4507 4.80209 15.5757 4.56822 15.7593 4.38467C15.9429 4.20111 16.1767 4.07611 16.4313 4.02546C16.6859 3.97482 16.9498 4.00081 17.1897 4.10015C17.4295 4.19949 17.6345 4.36772 17.7787 4.58356C17.9229 4.7994 17.9999 5.05316 17.9999 5.31274C18.0003 5.48521 17.9666 5.65605 17.9007 5.81545C17.8349 5.97486 17.7382 6.1197 17.6163 6.24165C17.4943 6.3636 17.3495 6.46026 17.1901 6.52609C17.0307 6.59192 16.8598 6.62561 16.6874 6.62524V6.62524Z" fill="white"/>
<path d="M11 7.49984C11.6923 7.49984 12.369 7.70512 12.9446 8.08973C13.5202 8.47433 13.9688 9.02098 14.2337 9.66055C14.4986 10.3001 14.5679 11.0039 14.4329 11.6828C14.2978 12.3618 13.9645 12.9855 13.475 13.475C12.9855 13.9645 12.3618 14.2978 11.6828 14.4329C11.0039 14.568 10.3001 14.4986 9.66055 14.2337C9.02098 13.9688 8.47433 13.5202 8.08973 12.9446C7.70512 12.369 7.49984 11.6923 7.49984 11C7.50084 10.072 7.86992 9.1823 8.52611 8.52611C9.1823 7.86992 10.072 7.50084 11 7.49984V7.49984ZM11 5.75C9.96164 5.75 8.94661 6.05791 8.08326 6.63478C7.2199 7.21166 6.54699 8.0316 6.14963 8.99091C5.75227 9.95022 5.64831 11.0058 5.85088 12.0242C6.05345 13.0426 6.55347 13.9781 7.28769 14.7123C8.02191 15.4465 8.95737 15.9466 9.97577 16.1491C10.9942 16.3517 12.0498 16.2477 13.0091 15.8504C13.9684 15.453 14.7883 14.7801 15.3652 13.9167C15.9421 13.0534 16.25 12.0384 16.25 11C16.25 9.60761 15.6969 8.27226 14.7123 7.28769C13.7277 6.30312 12.3924 5.75 11 5.75V5.75Z" fill="white"/>
</svg>
