<svg width="22" height="16" viewBox="0 0 22 16" fill="none" xmlns="http://www.w3.org/2000/svg">
<path d="M15.391 1V9.64945C14.1813 9.85694 13.2533 10.9204 13.2131 12.2156H8.23648C8.19112 10.7686 7.0381 9.61083 5.62255 9.61083C4.20701 9.61083 3.05398 10.7686 3.00863 12.2156H1V1H15.391Z" stroke="black" stroke-miterlimit="10" stroke-linejoin="round"/>
<path d="M21.0005 7.94911V12.2156H18.4406C18.3953 10.7686 17.2423 9.61079 15.8267 9.61079C15.6784 9.61079 15.5328 9.62337 15.3906 9.64941V3.68262H18.4834L21.0005 7.94911Z" stroke="black" stroke-miterlimit="10" stroke-linejoin="round"/>
<path d="M8.23796 12.3053C8.23796 13.7937 7.06662 15 5.62142 15C4.17622 15 3.00488 13.7937 3.00488 12.3053C3.00488 12.2748 3.00575 12.2452 3.0075 12.2155C3.05285 10.7685 4.20587 9.61072 5.62142 9.61072C7.03697 9.61072 8.18999 10.7685 8.23534 12.2155C8.23709 12.2452 8.23796 12.2748 8.23796 12.3053Z" stroke="black" stroke-miterlimit="10" stroke-linejoin="round"/>
<path d="M18.443 12.3053C18.443 13.7937 17.2717 15 15.8265 15C14.3813 15 13.21 13.7937 13.21 12.3053C13.21 12.2748 13.2108 12.2452 13.2126 12.2155C13.2527 10.9203 14.1807 9.85683 15.3904 9.64934C15.5326 9.62329 15.6782 9.61072 15.8265 9.61072C17.242 9.61072 18.3951 10.7685 18.4404 12.2155C18.4422 12.2452 18.443 12.2748 18.443 12.3053Z" stroke="black" stroke-miterlimit="10" stroke-linejoin="round"/>
</svg>
