<svg width="22" height="22" viewBox="0 0 22 22" fill="none" xmlns="http://www.w3.org/2000/svg">
<path d="M7.84998 10.9967C7.84979 11.6198 8.03438 12.2289 8.38039 12.747C8.72641 13.2652 9.21831 13.669 9.79388 13.9076C10.3694 14.1462 11.0028 14.2087 11.6139 14.0872C12.225 13.9658 12.7864 13.6659 13.227 13.2254C13.6677 12.7849 13.9678 12.2236 14.0894 11.6125C14.211 11.0015 14.1487 10.3681 13.9103 9.79242C13.6719 9.21678 13.2682 8.72476 12.7501 8.37859C12.2321 8.03242 11.623 7.84766 11 7.84766C10.1654 7.84988 9.36561 8.18234 8.77538 8.7724C8.18515 9.36245 7.85245 10.1621 7.84998 10.9967V10.9967Z" fill="white"/>
<path d="M21.3477 9.20891C21.3477 9.20891 21.3477 9.20891 21.3477 9.21125C21.2708 8.75334 21.1612 8.30155 21.0195 7.85938H21.0144C21.1582 8.30371 21.269 8.75808 21.3458 9.21875V9.21875C21.2687 8.75812 21.158 8.30378 21.0144 7.85938H13.73C14.623 8.65625 15.2 9.74234 15.2 11.0023C15.202 11.7407 15.0025 12.4657 14.623 13.0991L9.82812 21.4273C9.82836 21.4316 9.82836 21.4358 9.82812 21.44V21.4531V21.4409C10.2173 21.4825 10.6086 21.5022 11 21.5C11.3206 21.5 11.638 21.4817 11.9516 21.4531C12.4214 21.4107 12.8877 21.3364 13.3475 21.2309C18.0162 20.165 21.5 15.9875 21.5 10.9972C21.5001 10.3979 21.4491 9.7996 21.3477 9.20891V9.20891Z" fill="white"/>
<path d="M11 15.1957C9.42501 15.1957 8.11251 14.3562 7.37704 13.0962L2.5625 4.76839L2.55594 4.75714C1.51705 6.16366 0.845877 7.80736 0.603334 9.53904C0.36079 11.2707 0.554558 13.0356 1.16705 14.6734C1.77954 16.3112 2.79136 17.7701 4.11067 18.9177C5.42999 20.0653 7.01501 20.8653 8.72188 21.245V21.2426L12.3636 14.9332C11.9282 15.1007 11.4665 15.1896 11 15.1957V15.1957Z" fill="white"/>
<path d="M3.27925 3.90128L6.90503 10.1474C7.09326 9.19937 7.60413 8.34587 8.35073 7.73208C9.09732 7.11829 10.0335 6.78214 11 6.78081H20.6174C20.2868 6.05436 19.8818 5.36411 19.4089 4.72113L19.4146 4.72488C19.8856 5.36669 20.2887 6.0557 20.6174 6.78081H20.6253C20.2969 6.05353 19.8938 5.36232 19.4225 4.71831C19.4167 4.71471 19.4112 4.71064 19.4061 4.70613C18.4823 3.47108 17.2977 2.4548 15.9365 1.72956C14.5753 1.00433 13.071 0.587963 11.5307 0.510092C9.99032 0.432222 8.45172 0.694756 7.02434 1.27902C5.59697 1.86328 4.31588 2.75492 3.27222 3.8905L3.27878 3.90175L3.27925 3.90128Z" fill="white"/>
</svg>
